<?xml version="1.0" encoding="UTF-8" standalone="no"?>
<svg width="41px" height="40px" viewBox="0 0 41 40" version="1.1" xmlns="http://www.w3.org/2000/svg" xmlns:xlink="http://www.w3.org/1999/xlink" xmlns:sketch="http://www.bohemiancoding.com/sketch/ns">
    <!-- Generator: Sketch 3.4 (15575) - http://www.bohemiancoding.com/sketch -->
    <title>kubernetes</title>
    <desc>Created with Sketch.</desc>
    <defs></defs>
    <g id="Page-1" stroke="none" stroke-width="1" fill="none" fill-rule="evenodd" sketch:type="MSPage">
        <g id="kubernetes" sketch:type="MSLayerGroup">
            <path d="M13.1655629,39.2847682 C12.2119205,39.2847682 11.3112583,38.8609272 10.7019868,38.0927152 L1.43046358,26.5695364 C0.821192053,25.8013245 0.582781457,24.8211921 0.821192053,23.8675497 L4.13245033,9.48344371 C4.34437086,8.52980132 4.98013245,7.7615894 5.85430464,7.33774834 L19.2582781,0.927152318 C19.6821192,0.715231788 20.1589404,0.609271523 20.6357616,0.609271523 C21.1125828,0.609271523 21.589404,0.715231788 22.013245,0.927152318 L35.4172185,7.31125828 C36.2913907,7.73509934 36.9271523,8.50331126 37.1390728,9.45695364 L40.4503311,23.8410596 C40.6622517,24.794702 40.4503311,25.7748344 39.8410596,26.5430464 L30.5695364,38.0662252 C29.9602649,38.807947 29.0596026,39.2582781 28.1059603,39.2582781 L13.1655629,39.2847682 L13.1655629,39.2847682 Z" id="Shape" fill="#326DE6" sketch:type="MSShapeGroup"></path>
            <path d="M20.6092715,1.27152318 C20.9801325,1.27152318 21.3509934,1.35099338 21.6953642,1.50993377 L35.0993377,7.89403974 C35.7880795,8.2384106 36.3178808,8.87417219 36.4768212,9.61589404 L39.7880795,24 C39.9735099,24.7682119 39.7880795,25.5629139 39.2847682,26.1721854 L30.013245,37.6953642 C29.5364238,38.3046358 28.794702,38.6490066 28.0264901,38.6490066 L13.1655629,38.6490066 C12.397351,38.6490066 11.6556291,38.3046358 11.1788079,37.6953642 L1.90728477,26.1721854 C1.43046358,25.5629139 1.24503311,24.7682119 1.40397351,24 L4.71523179,9.61589404 C4.90066225,8.84768212 5.40397351,8.21192053 6.09271523,7.89403974 L19.4966887,1.48344371 C19.8410596,1.35099338 20.2384106,1.27152318 20.6092715,1.27152318 L20.6092715,1.27152318 Z M20.6092715,0.0264900662 L20.6092715,0.0264900662 C20.0529801,0.0264900662 19.4966887,0.158940397 18.9668874,0.397350993 L5.56291391,6.80794702 C4.50331126,7.31125828 3.7615894,8.2384106 3.49668874,9.37748344 L0.185430464,23.7615894 C-0.0794701987,24.9006623 0.185430464,26.0662252 0.927152318,26.9933775 L10.1986755,38.5165563 C10.9139073,39.4172185 12,39.9205298 13.1390728,39.9205298 L28,39.9205298 C29.1390728,39.9205298 30.2251656,39.4172185 30.9403974,38.5165563 L40.2119205,26.9933775 C40.9536424,26.0927152 41.218543,24.9006623 40.9536424,23.7615894 L37.6423841,9.37748344 C37.3774834,8.2384106 36.6357616,7.31125828 35.5761589,6.80794702 L22.2251656,0.397350993 C21.7218543,0.158940397 21.1655629,0.0264900662 20.6092715,0.0264900662 L20.6092715,0.0264900662 L20.6092715,0.0264900662 Z" id="Shape" fill="#FFFFFF" sketch:type="MSShapeGroup"></path>
            <path d="M34.0397351,22.8609272 L34.0397351,22.8609272 L34.0397351,22.8609272 L34.0397351,22.8609272 C34.013245,22.8609272 34.013245,22.8609272 34.0397351,22.8609272 L34.013245,22.8609272 C33.986755,22.8609272 33.9602649,22.8609272 33.9602649,22.8344371 C33.9072848,22.8344371 33.8543046,22.807947 33.8013245,22.807947 C33.615894,22.781457 33.4569536,22.7549669 33.2980132,22.7549669 C33.218543,22.7549669 33.1390728,22.7549669 33.0331126,22.7284768 L33.0066225,22.7284768 C32.4503311,22.6754967 32,22.6225166 31.5761589,22.4900662 C31.3907285,22.410596 31.3377483,22.3046358 31.2847682,22.1986755 C31.2847682,22.1721854 31.2582781,22.1721854 31.2582781,22.1456954 L31.2582781,22.1456954 L31.2582781,22.1456954 L31.2582781,22.1456954 L31.2582781,22.1456954 L31.2582781,22.1456954 L30.9139073,22.0397351 C31.0728477,20.8211921 31.0198675,19.5496689 30.7284768,18.3046358 C30.4370861,17.0596026 29.9337748,15.8940397 29.2450331,14.8344371 L29.5099338,14.5960265 L29.5099338,14.5960265 L29.5099338,14.5960265 L29.5099338,14.5960265 L29.5099338,14.5960265 L29.5099338,14.5960265 L29.5099338,14.5960265 L29.5099338,14.5430464 C29.5099338,14.410596 29.5364238,14.2781457 29.6423841,14.1456954 C29.9602649,13.8543046 30.3576159,13.615894 30.8344371,13.3245033 L30.8344371,13.3245033 C30.9139073,13.2715232 30.9933775,13.2450331 31.0728477,13.192053 C31.2317881,13.1125828 31.3642384,13.0331126 31.5231788,12.9271523 C31.5496689,12.9006623 31.602649,12.8741722 31.6556291,12.8211921 C31.6821192,12.794702 31.7086093,12.794702 31.7086093,12.7682119 L31.7086093,12.7682119 L31.7086093,12.7682119 C32.0794702,12.4503311 32.1589404,11.9205298 31.8940397,11.5761589 C31.7615894,11.3907285 31.5231788,11.2847682 31.2847682,11.2847682 C31.0728477,11.2847682 30.8874172,11.3642384 30.7019868,11.4966887 L30.7019868,11.4966887 L30.7019868,11.4966887 L30.7019868,11.4966887 L30.7019868,11.4966887 L30.7019868,11.4966887 C30.6754967,11.5231788 30.6754967,11.5231788 30.6490066,11.5496689 C30.5960265,11.5761589 30.5695364,11.6291391 30.5165563,11.6556291 C30.384106,11.7880795 30.2781457,11.8940397 30.1721854,12.0264901 C30.1192053,12.0794702 30.0662252,12.1589404 29.986755,12.2119205 L29.986755,12.2119205 C29.615894,12.6092715 29.2715232,12.9271523 28.9271523,13.1655629 C28.8476821,13.218543 28.7682119,13.2450331 28.6887417,13.2450331 C28.6357616,13.2450331 28.5827815,13.2450331 28.5298013,13.218543 L28.4768212,13.218543 L28.4768212,13.218543 L28.4768212,13.218543 L28.4768212,13.218543 L28.4768212,13.218543 L28.4768212,13.218543 L28.1589404,13.4304636 C27.8145695,13.0596026 27.4437086,12.7417219 27.0728477,12.4238411 C25.4834437,11.1788079 23.5496689,10.410596 21.5364238,10.2251656 L21.5099338,9.8807947 L21.5099338,9.8807947 L21.5099338,9.8807947 L21.5099338,9.8807947 L21.5099338,9.8807947 L21.5099338,9.8807947 C21.4834437,9.85430464 21.4834437,9.85430464 21.4569536,9.82781457 C21.3774834,9.74834437 21.2715232,9.66887417 21.2450331,9.48344371 C21.218543,9.05960265 21.2715232,8.58278146 21.3245033,8.05298013 L21.3245033,8.02649007 C21.3245033,7.94701987 21.3509934,7.8410596 21.3774834,7.7615894 C21.4039735,7.60264901 21.4304636,7.44370861 21.4569536,7.25827815 L21.4569536,7.09933775 L21.4569536,7.01986755 L21.4569536,7.01986755 L21.4569536,7.01986755 L21.4569536,7.01986755 L21.4569536,7.01986755 L21.4569536,7.01986755 C21.4569536,6.54304636 21.0860927,6.14569536 20.6357616,6.14569536 C20.4238411,6.14569536 20.2119205,6.25165563 20.0529801,6.41059603 C19.8940397,6.56953642 19.8145695,6.78145695 19.8145695,7.01986755 L19.8145695,7.01986755 L19.8145695,7.01986755 L19.8145695,7.01986755 L19.8145695,7.01986755 L19.8145695,7.01986755 L19.8145695,7.07284768 L19.8145695,7.23178808 C19.8145695,7.41721854 19.8410596,7.57615894 19.8940397,7.73509934 C19.9205298,7.81456954 19.9205298,7.89403974 19.9470199,8 L19.9470199,8.02649007 C20,8.55629139 20.0794702,9.03311258 20.0264901,9.45695364 C20,9.64238411 19.8940397,9.7218543 19.8145695,9.8013245 C19.7880795,9.82781457 19.7880795,9.82781457 19.7615894,9.85430464 L19.7615894,9.85430464 L19.7615894,9.85430464 L19.7615894,9.85430464 L19.7615894,9.85430464 L19.7615894,9.85430464 L19.7350993,10.1986755 C19.2582781,10.2516556 18.781457,10.3046358 18.3046358,10.410596 C16.2649007,10.8609272 14.4635762,11.8940397 13.0596026,13.3774834 L12.794702,13.192053 L12.794702,13.192053 L12.794702,13.192053 L12.794702,13.192053 L12.794702,13.192053 L12.794702,13.192053 L12.794702,13.192053 L12.7417219,13.192053 C12.6887417,13.192053 12.6357616,13.218543 12.5827815,13.218543 C12.5033113,13.218543 12.4238411,13.192053 12.3443709,13.1390728 C12,12.9006623 11.6556291,12.5562914 11.2847682,12.1589404 L11.2847682,12.1589404 C11.2317881,12.1059603 11.1788079,12.0264901 11.0993377,11.9735099 C10.9933775,11.8410596 10.8874172,11.7350993 10.7549669,11.602649 C10.7284768,11.5761589 10.6754967,11.5496689 10.6225166,11.4966887 C10.5960265,11.4701987 10.5695364,11.4701987 10.5695364,11.4437086 L10.5695364,11.4437086 L10.5695364,11.4437086 C10.410596,11.3112583 10.1986755,11.2317881 9.98675497,11.2317881 C9.74834437,11.2317881 9.50993377,11.3377483 9.37748344,11.5231788 C9.11258278,11.8675497 9.19205298,12.397351 9.56291391,12.7152318 L9.56291391,12.7152318 L9.56291391,12.7152318 L9.56291391,12.7152318 L9.56291391,12.7152318 C9.58940397,12.7152318 9.58940397,12.7417219 9.61589404,12.7417219 C9.66887417,12.7682119 9.69536424,12.8211921 9.74834437,12.8476821 C9.90728477,12.9536424 10.0397351,13.0331126 10.1986755,13.1125828 C10.2781457,13.1390728 10.3576159,13.192053 10.4370861,13.2450331 L10.4370861,13.2450331 C10.9139073,13.5364238 11.3112583,13.7748344 11.6291391,14.0662252 C11.7615894,14.1986755 11.7615894,14.3311258 11.7615894,14.4635762 L11.7615894,14.5165563 L11.7615894,14.5165563 L11.7615894,14.5165563 L11.7615894,14.5165563 L11.7615894,14.5165563 L11.7615894,14.5165563 L12.0264901,14.7549669 C11.9735099,14.8344371 11.9205298,14.8874172 11.8940397,14.9668874 C10.5695364,17.0596026 10.0662252,19.5231788 10.410596,21.9602649 L10.0662252,22.0662252 L10.0662252,22.0662252 L10.0662252,22.0662252 L10.0662252,22.0662252 L10.0662252,22.0662252 L10.0662252,22.0662252 L10.0662252,22.0662252 C10.0662252,22.0927152 10.0397351,22.0927152 10.0397351,22.1192053 C9.98675497,22.2251656 9.90728477,22.3311258 9.74834437,22.410596 C9.35099338,22.5430464 8.87417219,22.5960265 8.31788079,22.6490066 L8.29139073,22.6490066 C8.21192053,22.6490066 8.10596026,22.6490066 8.02649007,22.6754967 C7.86754967,22.6754967 7.70860927,22.7019868 7.52317881,22.7284768 C7.47019868,22.7284768 7.41721854,22.7549669 7.36423841,22.7549669 C7.33774834,22.7549669 7.31125828,22.7549669 7.28476821,22.781457 L7.28476821,22.781457 L7.28476821,22.781457 L7.28476821,22.781457 L7.28476821,22.781457 L7.28476821,22.781457 C6.80794702,22.8874172 6.51655629,23.3377483 6.59602649,23.7615894 C6.67549669,24.1324503 7.01986755,24.3708609 7.44370861,24.3708609 C7.52317881,24.3708609 7.57615894,24.3708609 7.65562914,24.3443709 L7.65562914,24.3443709 L7.65562914,24.3443709 L7.65562914,24.3443709 L7.65562914,24.3443709 L7.65562914,24.3443709 C7.68211921,24.3443709 7.70860927,24.3443709 7.70860927,24.3178808 C7.7615894,24.3178808 7.81456954,24.2913907 7.86754967,24.2913907 C8.05298013,24.2384106 8.18543046,24.1854305 8.34437086,24.1059603 C8.42384106,24.0794702 8.50331126,24.0264901 8.58278146,24 L8.60927152,24 C9.11258278,23.8145695 9.56291391,23.6556291 9.98675497,23.602649 L10.0397351,23.602649 C10.1986755,23.602649 10.3046358,23.6821192 10.384106,23.7350993 C10.410596,23.7350993 10.410596,23.7615894 10.4370861,23.7615894 L10.4370861,23.7615894 L10.4370861,23.7615894 L10.4370861,23.7615894 L10.4370861,23.7615894 L10.4370861,23.7615894 L10.807947,23.7086093 C11.4437086,25.6688742 12.6622517,27.4172185 14.2781457,28.6887417 C14.6490066,28.9801325 15.0198675,29.218543 15.4172185,29.4569536 L15.2582781,29.8013245 L15.2582781,29.8013245 L15.2582781,29.8013245 L15.2582781,29.8013245 L15.2582781,29.8013245 L15.2582781,29.8013245 C15.2582781,29.8278146 15.2847682,29.8278146 15.2847682,29.8543046 C15.3377483,29.9602649 15.3907285,30.0927152 15.3377483,30.2781457 C15.1788079,30.6754967 14.9403974,31.0728477 14.6490066,31.5231788 L14.6490066,31.5496689 C14.5960265,31.6291391 14.5430464,31.6821192 14.4900662,31.7615894 C14.384106,31.8940397 14.3046358,32.0264901 14.1986755,32.1854305 C14.1721854,32.2119205 14.1456954,32.2649007 14.1192053,32.3178808 C14.1192053,32.3443709 14.0927152,32.3708609 14.0927152,32.3708609 L14.0927152,32.3708609 L14.0927152,32.3708609 L14.0927152,32.3708609 L14.0927152,32.3708609 L14.0927152,32.3708609 C13.8807947,32.8211921 14.0397351,33.3245033 14.4370861,33.5099338 C14.5430464,33.5629139 14.6490066,33.589404 14.7549669,33.589404 C15.0728477,33.589404 15.3907285,33.3774834 15.5496689,33.0860927 L15.5496689,33.0860927 L15.5496689,33.0860927 L15.5496689,33.0860927 L15.5496689,33.0860927 L15.5496689,33.0860927 C15.5496689,33.0596026 15.5761589,33.0331126 15.5761589,33.0331126 C15.602649,32.9801325 15.6291391,32.9271523 15.6556291,32.9006623 C15.7350993,32.7152318 15.7615894,32.5827815 15.8145695,32.4238411 C15.8410596,32.3443709 15.8675497,32.2649007 15.8940397,32.1854305 L15.8940397,32.1854305 C16.0794702,31.6556291 16.2119205,31.2317881 16.4503311,30.8609272 C16.5562914,30.7019868 16.6887417,30.6754967 16.794702,30.6225166 C16.8211921,30.6225166 16.8211921,30.6225166 16.8476821,30.5960265 L16.8476821,30.5960265 L16.8476821,30.5960265 L16.8476821,30.5960265 L16.8476821,30.5960265 L16.8476821,30.5960265 L17.0331126,30.2516556 C18.1986755,30.7019868 19.4701987,30.9403974 20.7417219,30.9403974 C21.5099338,30.9403974 22.3046358,30.8609272 23.0463576,30.6754967 C23.5231788,30.5695364 23.9735099,30.4370861 24.4238411,30.2781457 L24.5827815,30.5695364 L24.5827815,30.5695364 L24.5827815,30.5695364 L24.5827815,30.5695364 L24.5827815,30.5695364 L24.5827815,30.5695364 L24.5827815,30.5695364 C24.6092715,30.5695364 24.6092715,30.5695364 24.6357616,30.5960265 C24.7682119,30.6225166 24.8741722,30.6754967 24.9801325,30.8344371 C25.192053,31.205298 25.3509934,31.6556291 25.5364238,32.1589404 L25.5364238,32.1854305 C25.5629139,32.2649007 25.589404,32.3443709 25.615894,32.4238411 C25.6688742,32.5827815 25.6953642,32.7417219 25.7748344,32.9006623 C25.8013245,32.9536424 25.8278146,32.9801325 25.8543046,33.0331126 C25.8543046,33.0596026 25.8807947,33.0860927 25.8807947,33.0860927 L25.8807947,33.0860927 L25.8807947,33.0860927 L25.8807947,33.0860927 L25.8807947,33.0860927 L25.8807947,33.0860927 C26.0397351,33.4039735 26.3576159,33.589404 26.6754967,33.589404 C26.781457,33.589404 26.8874172,33.5629139 26.9933775,33.5099338 C27.1788079,33.4039735 27.3377483,33.2450331 27.3907285,33.0331126 C27.4437086,32.8211921 27.4437086,32.5827815 27.3377483,32.3708609 L27.3377483,32.3708609 L27.3377483,32.3708609 L27.3377483,32.3708609 L27.3377483,32.3708609 L27.3377483,32.3708609 C27.3377483,32.3443709 27.3112583,32.3443709 27.3112583,32.3178808 C27.2847682,32.2649007 27.2582781,32.2119205 27.2317881,32.1854305 C27.1523179,32.0264901 27.0463576,31.8940397 26.9403974,31.7615894 C26.8874172,31.6821192 26.8344371,31.6291391 26.781457,31.5496689 L26.781457,31.5231788 C26.4900662,31.0728477 26.2251656,30.6754967 26.0927152,30.2781457 C26.0397351,30.0927152 26.0927152,29.986755 26.1192053,29.8543046 C26.1192053,29.8278146 26.1456954,29.8278146 26.1456954,29.8013245 L26.1456954,29.8013245 L26.1456954,29.8013245 L26.1456954,29.8013245 L26.1456954,29.8013245 L26.1456954,29.8013245 L26.013245,29.4834437 C27.4172185,28.6622517 28.6092715,27.4966887 29.5099338,26.0662252 C29.986755,25.3245033 30.3576159,24.5033113 30.6225166,23.6821192 L30.9403974,23.7350993 L30.9403974,23.7350993 L30.9403974,23.7350993 L30.9403974,23.7350993 L30.9403974,23.7350993 L30.9403974,23.7350993 L30.9403974,23.7350993 C30.9668874,23.7350993 30.9668874,23.7086093 30.9933775,23.7086093 C31.0993377,23.6556291 31.1788079,23.5761589 31.3377483,23.5761589 L31.3907285,23.5761589 C31.8145695,23.6291391 32.2649007,23.7880795 32.7682119,23.9735099 L32.794702,23.9735099 C32.8741722,24 32.9536424,24.0529801 33.0331126,24.0794702 C33.192053,24.1589404 33.3245033,24.2119205 33.5099338,24.2649007 C33.5629139,24.2649007 33.615894,24.2913907 33.6688742,24.2913907 C33.6953642,24.2913907 33.7218543,24.2913907 33.7483444,24.3178808 L33.7483444,24.3178808 L33.7483444,24.3178808 C33.8278146,24.3443709 33.8807947,24.3443709 33.9602649,24.3443709 C34.3576159,24.3443709 34.7019868,24.0794702 34.807947,23.7350993 C34.807947,23.4172185 34.5165563,22.9933775 34.0397351,22.8609272 L34.0397351,22.8609272 Z M21.7748344,21.5629139 L20.6092715,22.1192053 L19.4437086,21.5629139 L19.1523179,20.3178808 L19.9470199,19.3112583 L21.2450331,19.3112583 L22.0397351,20.3178808 L21.7748344,21.5629139 L21.7748344,21.5629139 Z M28.6887417,18.807947 C28.9006623,19.7086093 28.9536424,20.6092715 28.8741722,21.4834437 L24.8211921,20.3178808 L24.8211921,20.3178808 C24.4503311,20.2119205 24.2384106,19.8410596 24.3178808,19.4701987 C24.3443709,19.3642384 24.397351,19.2582781 24.4768212,19.1788079 L27.6821192,16.2913907 C28.1324503,17.0331126 28.4768212,17.8807947 28.6887417,18.807947 L28.6887417,18.807947 Z M26.410596,14.7019868 L22.9403974,17.1655629 C22.6490066,17.3509934 22.2516556,17.2980132 22.013245,17.0066225 C21.9337748,16.9271523 21.9072848,16.8211921 21.8807947,16.7152318 L21.6423841,12.397351 C23.4701987,12.6092715 25.1390728,13.4304636 26.410596,14.7019868 L26.410596,14.7019868 Z M18.7284768,12.5298013 C19.0198675,12.4768212 19.2847682,12.4238411 19.5761589,12.3708609 L19.3377483,16.6092715 L19.3377483,16.6092715 C19.3112583,16.9801325 19.0198675,17.2980132 18.6225166,17.2980132 C18.5165563,17.2980132 18.384106,17.2715232 18.3046358,17.218543 L14.781457,14.7019868 C15.8675497,13.615894 17.218543,12.8741722 18.7284768,12.5298013 L18.7284768,12.5298013 Z M13.5099338,16.2913907 L16.6622517,19.0993377 L16.6622517,19.0993377 C16.9536424,19.3377483 16.9801325,19.7880795 16.7417219,20.0794702 C16.6622517,20.1854305 16.5562914,20.2649007 16.4238411,20.2913907 L12.3178808,21.4834437 C12.1589404,19.6821192 12.5562914,17.8543046 13.5099338,16.2913907 L13.5099338,16.2913907 Z M12.794702,23.4701987 L17.0066225,22.7549669 C17.3509934,22.7284768 17.6688742,22.9668874 17.7483444,23.3112583 C17.7748344,23.4701987 17.7748344,23.602649 17.7218543,23.7350993 L17.7218543,23.7350993 L16.1059603,27.6291391 C14.6225166,26.6754967 13.4304636,25.218543 12.794702,23.4701987 L12.794702,23.4701987 Z M22.4635762,28.7417219 C21.8543046,28.8741722 21.2450331,28.9536424 20.6092715,28.9536424 C19.6821192,28.9536424 18.781457,28.794702 17.9337748,28.5298013 L20.0264901,24.7417219 C20.2384106,24.5033113 20.5827815,24.397351 20.8741722,24.5562914 C21.0066225,24.6357616 21.1125828,24.7417219 21.192053,24.8476821 L21.192053,24.8476821 L23.2317881,28.5298013 C22.9933775,28.6092715 22.7284768,28.6622517 22.4635762,28.7417219 L22.4635762,28.7417219 Z M27.6291391,25.0596026 C26.9668874,26.1192053 26.0927152,26.9668874 25.0860927,27.6291391 L23.4172185,23.6291391 C23.3377483,23.3112583 23.4701987,22.9668874 23.7880795,22.807947 C23.8940397,22.7549669 24.0264901,22.7284768 24.1589404,22.7284768 L28.397351,23.4437086 C28.2384106,24.0264901 27.9735099,24.5562914 27.6291391,25.0596026 L27.6291391,25.0596026 Z" id="Shape" fill="#FFFFFF" sketch:type="MSShapeGroup"></path>
        </g>
    </g>
</svg>