<?xml version="1.0" encoding="UTF-8" standalone="no"?>
<svg width="128px" height="72px" viewBox="0 0 128 72" version="1.1" xmlns="http://www.w3.org/2000/svg" xmlns:xlink="http://www.w3.org/1999/xlink" xmlns:sketch="http://www.bohemiancoding.com/sketch/ns">
    <!-- Generator: Sketch 3.4 (15575) - http://www.bohemiancoding.com/sketch -->
    <title>machine</title>
    <desc>Created with Sketch.</desc>
    <defs></defs>
    <g id="Page-1" stroke="none" stroke-width="1" fill="none" fill-rule="evenodd" sketch:type="MSPage">
        <g id="machine" sketch:type="MSLayerGroup" transform="translate(1.000000, 1.000000)" stroke-width="2" stroke="#353131">
            <g id="Page-1" sketch:type="MSShapeGroup">
                <g>
                    <path d="M41.2268983,0.63975828 L108.966761,15.0878502 L41.2268983,0.63975828 L41.2268983,0.63975828 L41.2268983,0.63975828 Z M108.507193,54.9983213 L40.8551127,69.4307458 L108.507193,54.9983213 L108.507193,54.9983213 L108.507193,54.9983213 Z M69.2115144,35.0013057 C69.2115144,54.3298394 53.7178637,70 34.6070482,70 C15.4936508,70 0,54.3298394 0,35.0013057 C0,15.6701608 15.4936508,0 34.6070482,0 C53.7178637,0 69.2115144,15.6701608 69.2115144,35.0013057 L69.2115144,35.0013057 L69.2115144,35.0013057 L69.2115144,35.0013057 Z M125.12911,35.0013057 C125.12911,46.2114373 116.14429,55.2986161 105.06043,55.2986161 C93.9765701,55.2986161 84.9917502,46.2114373 84.9917502,35.0013057 C84.9917502,23.791174 93.9765701,14.7039952 105.06043,14.7039952 C116.14429,14.7039952 125.12911,23.791174 125.12911,35.0013057 L125.12911,35.0013057 L125.12911,35.0013057 L125.12911,35.0013057 Z M42.8896064,35.0013057 C42.8896064,39.6258441 39.1820772,43.3782221 34.6070482,43.3782221 C30.0320192,43.3782221 26.321908,39.6258441 26.321908,35.0013057 C26.321908,30.3715447 30.0320192,26.621778 34.6070482,26.621778 C39.1820772,26.621778 42.8896064,30.3715447 42.8896064,35.0013057 L42.8896064,35.0013057 L42.8896064,35.0013057 L42.8896064,35.0013057 Z" id="machine"></path>
                </g>
            </g>
        </g>
    </g>
</svg>