<?xml version="1.0" encoding="UTF-8" standalone="no"?>
<svg width="41px" height="42px" viewBox="0 0 41 42" version="1.1" xmlns="http://www.w3.org/2000/svg" xmlns:xlink="http://www.w3.org/1999/xlink" xmlns:sketch="http://www.bohemiancoding.com/sketch/ns">
    <!-- Generator: Sketch 3.4 (15575) - http://www.bohemiancoding.com/sketch -->
    <title>swarm_1</title>
    <desc>Created with Sketch.</desc>
    <defs></defs>
    <g id="Page-1" stroke="none" stroke-width="1" fill="none" fill-rule="evenodd" sketch:type="MSPage">
        <g id="swarm_1" sketch:type="MSLayerGroup" transform="translate(1.000000, 1.000000)" stroke-width="2" stroke="#353131">
            <g id="swarm" sketch:type="MSShapeGroup">
                <path d="M22.0996808,0 C22.5707699,0 23.1436661,0.330410236 23.3796734,0.738564057 L26.8022421,6.66651242 L22.9530092,13.3339504 L15.2545432,13.3339504 L11.4053102,6.66651242 L14.827879,0.738564057 C15.0629608,0.330410236 15.635857,0 16.1078716,0 L22.0996808,0 L22.0996808,0 L22.0996808,0 Z M11.3932785,6.66651242 L15.2425115,13.3339504 L11.3932785,20.0013883 L3.69481255,20.0013883 L0.272243769,14.0734399 C0.0362364577,13.6643606 0.0362364577,13.0035401 0.272243769,12.5953863 L3.26814835,7.40600198 C3.50323014,6.99784815 4.07612632,6.66651242 4.54814095,6.66651242 L11.3932785,6.66651242 L11.3932785,6.66651242 L11.3932785,6.66651242 Z M33.5946251,6.66651242 C34.0657142,6.66651242 34.6386104,6.99692263 34.8746177,7.40600198 L37.8705223,12.5953863 C38.1065296,13.0035401 38.1065296,13.6643606 37.8705223,14.0734399 L34.4479535,20.0013883 L26.7494876,20.0013883 L22.9002546,13.3339504 L26.7494876,6.66651242 L33.5946251,6.66651242 L33.5946251,6.66651242 L33.5946251,6.66651242 Z M16.1078716,40 C15.6367825,40 15.0629608,39.6695897 14.827879,39.261436 L11.4053102,33.3325621 L15.2545432,26.6660496 L22.9530092,26.6660496 L26.8022421,33.3325621 L23.3796734,39.261436 C23.1436661,39.6695897 22.5707699,40 22.0996808,40 L16.1078716,40 L16.1078716,40 L16.1078716,40 Z M26.7494876,33.3325621 L22.9002546,26.6660496 L26.7494876,19.9986117 L34.4479535,19.9986117 L37.8705223,25.9265601 C38.1065296,26.3347139 38.1065296,26.9964599 37.8705223,27.4046137 L34.8746177,32.593998 C34.6395359,33.0021518 34.0666398,33.3325621 33.5946251,33.3325621 L26.7494876,33.3325621 L26.7494876,33.3325621 L26.7494876,33.3325621 Z M4.54814095,33.3325621 C4.07705184,33.3325621 3.50323014,33.0021518 3.26814835,32.593998 L0.272243769,27.4046137 C0.0362364577,26.9964599 0.0362364577,26.3347139 0.272243769,25.9265601 L3.69481255,19.9986117 L11.3932785,19.9986117 L15.2425115,26.6660496 L11.3932785,33.3325621 L4.54814095,33.3325621 L4.54814095,33.3325621 L4.54814095,33.3325621 Z" id="Imported-Layers"></path>
            </g>
        </g>
    </g>
</svg>