<?xml version="1.0" encoding="UTF-8" standalone="no"?>
<svg width="73px" height="72px" viewBox="0 0 73 72" version="1.1" xmlns="http://www.w3.org/2000/svg" xmlns:xlink="http://www.w3.org/1999/xlink" xmlns:sketch="http://www.bohemiancoding.com/sketch/ns">
    <!-- Generator: Sketch 3.4 (15575) - http://www.bohemiancoding.com/sketch -->
    <title>compose</title>
    <desc>Created with Sketch.</desc>
    <defs></defs>
    <g id="Page-1" stroke="none" stroke-width="1" fill="none" fill-rule="evenodd" sketch:type="MSPage">
        <g id="compose" sketch:type="MSLayerGroup" transform="translate(1.000000, 1.000000)" stroke-width="2" stroke="#353131">
            <g id="Page-1" sketch:type="MSShapeGroup">
                <g>
                    <g id="compose">
                        <path d="M8.19864647,26.3343719 L8.19864647,16.681665 M35.5479826,26.3343719 L35.5479826,16.681665 M27.2997445,34.3782941 L16.2425689,34.3782941 M53.8479058,61.7276301 L44.4767363,61.7276301" id="Stroke-1"></path>
                        <path d="M1.76350858,0.593820225 L14.6337844,0.593820225 C15.5218334,0.593820225 16.2425689,1.31294689 16.2425689,2.20260471 L16.2425689,15.0728805 C16.2425689,15.9609295 15.5218334,16.681665 14.6337844,16.681665 L1.76350858,16.681665 C0.875459543,16.681665 0.154724098,15.9609295 0.154724098,15.0728805 L0.154724098,2.20260471 C0.154724098,1.31294689 0.875459543,0.593820225 1.76350858,0.593820225 L1.76350858,0.593820225 L1.76350858,0.593820225 L1.76350858,0.593820225 Z M29.1128446,0.593820225 L41.9831205,0.593820225 C42.8711694,0.593820225 43.5919048,1.31294689 43.5919048,2.20260471 L43.5919048,15.0728805 C43.5919048,15.9609295 42.8711694,16.681665 41.9831205,16.681665 L29.1128446,16.681665 C28.2247955,16.681665 27.5040601,15.9609295 27.5040601,15.0728805 L27.5040601,2.20260471 C27.5040601,1.31294689 28.2247955,0.593820225 29.1128446,0.593820225 L29.1128446,0.593820225 L29.1128446,0.593820225 L29.1128446,0.593820225 Z M1.76350858,26.3343719 L14.6337844,26.3343719 C15.5218334,26.3343719 16.2425689,27.0534985 16.2425689,27.9431563 L16.2425689,40.8134321 C16.2425689,41.7014812 15.5218334,42.4222166 14.6337844,42.4222166 L1.76350858,42.4222166 C0.875459543,42.4222166 0.154724098,41.7014812 0.154724098,40.8134321 L0.154724098,27.9431563 C0.154724098,27.0534985 0.875459543,26.3343719 1.76350858,26.3343719 L1.76350858,26.3343719 L1.76350858,26.3343719 L1.76350858,26.3343719 Z M29.1128446,26.3343719 L41.9831205,26.3343719 C42.8711694,26.3343719 43.5919048,27.0534985 43.5919048,27.9431563 L43.5919048,40.8134321 C43.5919048,41.7014812 42.8711694,42.4222166 41.9831205,42.4222166 L29.1128446,42.4222166 C28.2247955,42.4222166 27.5040601,41.7014812 27.5040601,40.8134321 L27.5040601,27.9431563 C27.5040601,27.0534985 28.2247955,26.3343719 29.1128446,26.3343719 L29.1128446,26.3343719 L29.1128446,26.3343719 L29.1128446,26.3343719 Z M29.1128446,53.6837079 L41.9831205,53.6837079 C42.8711694,53.6837079 43.5919048,54.4028345 43.5919048,55.2924923 L43.5919048,68.1627681 C43.5919048,69.0508172 42.8711694,69.7715526 41.9831205,69.7715526 L29.1128446,69.7715526 C28.2247955,69.7715526 27.5040601,69.0508172 27.5040601,68.1627681 L27.5040601,55.2924923 C27.5040601,54.4028345 28.2247955,53.6837079 29.1128446,53.6837079 L29.1128446,53.6837079 L29.1128446,53.6837079 L29.1128446,53.6837079 Z M56.4621808,26.3343719 L69.3324566,26.3343719 C70.2205054,26.3343719 70.941241,27.0534985 70.941241,27.9431563 L70.941241,40.8134321 C70.941241,41.7014812 70.2205054,42.4222166 69.3324566,42.4222166 L56.4621808,42.4222166 C55.5741317,42.4222166 54.8533961,41.7014812 54.8533961,40.8134321 L54.8533961,27.9431563 C54.8533961,27.0534985 55.5741317,26.3343719 56.4621808,26.3343719 L56.4621808,26.3343719 L56.4621808,26.3343719 L56.4621808,26.3343719 Z M56.4621808,53.6837079 L69.3324566,53.6837079 C70.2205054,53.6837079 70.941241,54.4028345 70.941241,55.2924923 L70.941241,68.1627681 C70.941241,69.0508172 70.2205054,69.7715526 69.3324566,69.7715526 L56.4621808,69.7715526 C55.5741317,69.7715526 54.8533961,69.0508172 54.8533961,68.1627681 L54.8533961,55.2924923 C54.8533961,54.4028345 55.5741317,53.6837079 56.4621808,53.6837079 L56.4621808,53.6837079 L56.4621808,53.6837079 L56.4621808,53.6837079 Z M56.4621808,0.593820225 L69.3324566,0.593820225 C70.2205054,0.593820225 70.941241,1.31294689 70.941241,2.20260471 L70.941241,15.0728805 C70.941241,15.9609295 70.2205054,16.681665 69.3324566,16.681665 L56.4621808,16.681665 C55.5741317,16.681665 54.8533961,15.9609295 54.8533961,15.0728805 L54.8533961,2.20260471 C54.8533961,1.31294689 55.5741317,0.593820225 56.4621808,0.593820225 L56.4621808,0.593820225 L56.4621808,0.593820225 L56.4621808,0.593820225 Z M1.76350858,53.6837079 L14.6337844,53.6837079 C15.5218334,53.6837079 16.2425689,54.4028345 16.2425689,55.2924923 L16.2425689,68.1627681 C16.2425689,69.0508172 15.5218334,69.7715526 14.6337844,69.7715526 L1.76350858,69.7715526 C0.875459543,69.7715526 0.154724098,69.0508172 0.154724098,68.1627681 L0.154724098,55.2924923 C0.154724098,54.4028345 0.875459543,53.6837079 1.76350858,53.6837079 L1.76350858,53.6837079 L1.76350858,53.6837079 L1.76350858,53.6837079 Z" id="Stroke-2"></path>
                    </g>
                </g>
            </g>
        </g>
    </g>
</svg>