<?xml version="1.0" encoding="UTF-8" standalone="no"?>
<svg width="72px" height="72px" viewBox="0 0 72 72" version="1.1" xmlns="http://www.w3.org/2000/svg" xmlns:xlink="http://www.w3.org/1999/xlink" xmlns:sketch="http://www.bohemiancoding.com/sketch/ns">
    <!-- Generator: Sketch 3.4 (15575) - http://www.bohemiancoding.com/sketch -->
    <title>engine</title>
    <desc>Created with Sketch.</desc>
    <defs></defs>
    <g id="Page-1" stroke="none" stroke-width="1" fill="none" fill-rule="evenodd" sketch:type="MSPage">
        <g id="engine" sketch:type="MSLayerGroup" transform="translate(1.000000, 1.000000)" stroke-width="2" stroke="#353131">
            <g id="Page-1" sketch:type="MSShapeGroup">
                <g>
                    <g id="engine">
                        <path d="M34.9662534,0.705463728 C54.0282369,0.705463728 69.4825528,16.1581726 69.4825528,35.2217632 C69.4825528,54.2837467 54.0282369,69.7380625 34.9662534,69.7380625 C15.902663,69.7380625 0.448347107,54.2837467 0.448347107,35.2217632 C0.448347107,16.1581726 15.902663,0.705463728 34.9662534,0.705463728 L34.9662534,0.705463728 L34.9662534,0.705463728 L34.9662534,0.705463728 Z" id="Stroke-1"></path>
                        <path d="M34.9662534,8.66965106 C49.6299358,8.66965106 61.5167584,20.5580807 61.5167584,35.2217631 C61.5167584,49.8854454 49.6299358,61.7722681 34.9662534,61.7722681 C20.3009642,61.7722681 8.41414142,49.8854454 8.41414142,35.2217631 C8.41414142,20.5580807 20.3009642,8.66965106 34.9662534,8.66965106 L34.9662534,8.66965106 L34.9662534,8.66965106 L34.9662534,8.66965106 Z" id="Stroke-2"></path>
                        <path d="M34.693067,41.5195134 C34.7091369,45.7603305 34.6416437,49.7729568 34.2125803,53.0078054 C33.4958678,58.4345731 28.8083105,60.5718549 28.8083105,60.5718549 M41.9341139,10.426079 C41.9341139,10.426079 36.6937557,14.3213958 35.8677686,17.4067952 C35.1092745,20.2398991 34.7991276,23.9054177 34.686639,27.9019743 M27.9694674,34.8328741 C24.0291551,34.8360882 20.3202478,34.7509183 17.2910927,34.3491736 C11.865932,33.6324609 9.72865014,28.9449036 9.72865014,28.9449036 M60.1749311,42.4612029 C60.1749311,42.4612029 55.9791094,36.830349 52.8937097,36.0043618 C49.8533058,35.1896235 45.8551424,34.8939393 41.5195133,34.8023415 M30.0730027,39.6795226 C27.1852618,42.5833333 24.3987602,45.2605601 21.8886593,47.1841139 C17.5433884,50.5121671 12.9554637,48.9405418 12.9554637,48.9405418 M57.1570247,22.4993113 C57.1570247,22.4993113 50.9974747,21.5833333 48.2318641,23.1790634 C45.6173095,24.6896235 42.7134986,27.1611569 39.7164829,30.0119376 M30.0746098,29.6664372 C27.3829201,26.9715336 24.9194214,24.3778696 23.1163912,22.0252526 C19.788338,17.6799816 21.5913682,12.8542241 21.5913682,12.8542241 M47.7031679,58.0842516 C47.7031679,58.0842516 48.7171716,51.134068 47.1214417,48.3700642 C45.5289256,45.6124884 42.8709825,42.538338 39.8273647,39.3709825" id="Stroke-3"></path>
                        <path d="M34.9662534,28.8484849 C36.5185951,28.8484849 37.9423783,29.4044994 39.0479798,30.3285124 C40.4476585,31.4967859 41.3379248,33.2548209 41.3379248,35.2217632 C41.3379248,38.7410467 38.4839303,41.5934342 34.9662534,41.5934342 C31.4469698,41.5934342 28.5929753,38.7410467 28.5929753,35.2217632 C28.5929753,31.7024794 31.4469698,28.8484849 34.9662534,28.8484849 L34.9662534,28.8484849 L34.9662534,28.8484849 L34.9662534,28.8484849 Z" id="Stroke-4"></path>
                    </g>
                </g>
            </g>
        </g>
    </g>
</svg>