<?xml version="1.0" encoding="UTF-8" standalone="no"?>
<svg width="98px" height="69px" viewBox="0 0 98 69" version="1.1" xmlns="http://www.w3.org/2000/svg" xmlns:xlink="http://www.w3.org/1999/xlink" xmlns:sketch="http://www.bohemiancoding.com/sketch/ns">
    <!-- Generator: Sketch 3.4 (15575) - http://www.bohemiancoding.com/sketch -->
    <title>hub</title>
    <desc>Created with Sketch.</desc>
    <defs></defs>
    <g id="Page-1" stroke="none" stroke-width="1" fill="none" fill-rule="evenodd" sketch:type="MSPage">
        <g id="hub" sketch:type="MSLayerGroup" transform="translate(0.000000, -1.000000)" fill="#FFFFFF">
            <g id="logo-copy" sketch:type="MSShapeGroup">
                <g id="Group">
                    <path d="M6.11604651,25.6688372 L15.9486047,25.6688372 L15.9486047,35.2295349 L6.11604651,35.2295349 L6.11604651,25.672093 L6.11604651,25.6688372 Z M18.1837209,25.6688372 L28.0162791,25.6688372 L28.0162791,35.2295349 L18.1837209,35.2295349 L18.1837209,25.672093 L18.1837209,25.6688372 Z M18.1837209,13.4139535 L28.0162791,13.4139535 L28.0162791,22.9697674 L18.1837209,22.9697674 L18.1837209,13.4139535 L18.1837209,13.4139535 Z M30.2465116,25.6688372 L40.0839535,25.6688372 L40.0839535,35.2295349 L30.2465116,35.2295349 L30.2465116,25.672093 L30.2465116,25.6688372 Z M30.2465116,13.4139535 L40.0839535,13.4139535 L40.0839535,22.9697674 L30.2465116,22.9697674 L30.2465116,13.4139535 L30.2465116,13.4139535 Z M42.314186,25.6688372 L52.15,25.6688372 L52.15,35.2295349 L42.314186,35.2295349 L42.314186,25.672093 L42.314186,25.6688372 Z M42.314186,13.4139535 L52.15,13.4139535 L52.15,22.9697674 L42.314186,22.9697674 L42.314186,13.4139535 L42.314186,13.4139535 Z M54.3802326,25.6688372 L64.2160465,25.6688372 L64.2160465,35.2295349 L54.3802326,35.2295349 L54.3802326,25.672093 L54.3802326,25.6688372 Z M42.314186,1.15255814 L52.15,1.15255814 L52.15,10.7116279 L42.314186,10.7116279 L42.314186,1.15255814 L42.314186,1.15255814 Z M19.8506977,49.0325581 C18.3367442,49.0325581 17.1093023,50.225814 17.1093023,51.695814 C17.1093023,53.164186 18.3383721,54.3574419 19.8506977,54.3574419 C21.3613953,54.3574419 22.5904651,53.165814 22.5904651,51.6974419 C22.5904651,50.2274419 21.3613953,49.0325581 19.8506977,49.0325581 L19.8506977,49.0325581 Z" id="Shape"></path>
                    <path d="M95.8918605,30.6144186 C92.5872093,28.7618605 88.1918605,28.507907 84.4476744,29.5790698 C83.9869767,25.7095349 81.3709302,22.3186047 78.2616279,19.8881395 L77.0276744,18.9227907 L75.9890698,20.0883721 C73.9053488,22.4293023 73.2867442,26.3232558 73.5683721,29.312093 C73.78,31.5097674 74.4881395,33.7432558 75.88,35.507907 C74.8218605,36.1265116 73.6204651,36.6181395 72.5509302,36.9730233 C70.3695349,37.6893023 68.0009302,38.0881395 65.6974419,38.0881395 L0.997906977,38.0881395 L0.859534884,39.5369767 C0.395581395,44.3751163 1.07767442,49.2181395 3.13534884,53.6346512 L4.02093023,55.3895349 L4.12186047,55.5523256 C10.2053488,65.5965116 20.8893023,69.825814 32.532093,69.825814 C55.072093,69.825814 73.6611628,60.042093 82.1995349,39.3709302 C87.9053488,39.6606977 93.7413953,38.0197674 96.5332558,32.724186 L97.2446512,31.3730233 L95.8902326,30.6144186 L95.8918605,30.6144186 Z M19.8523256,56.752093 C16.9806977,56.752093 14.6462791,54.4827907 14.6462791,51.695814 C14.6462791,48.9072093 16.9806977,46.637907 19.8506977,46.637907 C22.7206977,46.637907 25.0551163,48.9055814 25.0551163,51.694186 C25.0551163,54.4811628 22.7223256,56.7504651 19.8523256,56.7504651 L19.8523256,56.752093 Z" id="Shape"></path>
                </g>
            </g>
        </g>
    </g>
</svg>