<?xml version="1.0" encoding="UTF-8" standalone="no"?>
<svg width="62px" height="70px" viewBox="0 0 62 70" version="1.1" xmlns="http://www.w3.org/2000/svg" xmlns:xlink="http://www.w3.org/1999/xlink" xmlns:sketch="http://www.bohemiancoding.com/sketch/ns">
    <!-- Generator: Sketch 3.4 (15575) - http://www.bohemiancoding.com/sketch -->
    <title>nodemon</title>
    <desc>Created with Sketch.</desc>
    <defs></defs>
    <g id="Page-1" stroke="none" stroke-width="1" fill="none" fill-rule="evenodd" sketch:type="MSPage">
        <g id="nodemon" sketch:type="MSLayerGroup" fill="#4F4D3F">
            <g id="Page-1" sketch:type="MSShapeGroup">
                <g>
                    <g id="nodemon">
                        <g id="Group">
                            <path d="M59.8428108,22.8767567 L57.8275675,21.717027 C60.9264864,17.1462162 62.7782703,10.2741081 60.4561622,-7.10542736e-15 C60.4561622,-7.10542736e-15 55.226973,14.6557297 44.714865,14.1702703 L32.4062161,7.08702703 C31.9419459,6.81156756 31.4216756,6.66967567 30.8957297,6.64810811 L30.6119459,6.64810811 C30.087135,6.67005405 29.5676216,6.81194594 29.0969189,7.08702703 L16.7871351,14.1702703 C6.27616217,14.6572432 1.04508108,-4.41688727e-15 1.04508108,-4.41688727e-15 C-1.27816216,10.2737297 0.57664865,17.1458378 3.67481081,21.717027 L1.65994595,22.8771351 C0.636432433,23.467027 7.10542736e-15,24.5624325 7.10542736e-15,25.7573514 L0.0605405406,68.2730811 C0.0605405406,68.8663783 0.367783784,69.4157839 0.888432433,69.7044864 C1.39697297,70.0117297 2.02659459,70.0117297 2.53437839,69.7044864 L18.8402161,60.3676217 C19.8720541,59.7546486 20.4994053,58.6736217 20.4994053,57.4919459 L20.4994053,37.6297297 C20.4994053,36.4454053 21.1267567,35.3473514 22.1540541,34.7604864 L29.0972972,30.7621622 C29.6145406,30.460973 30.1805947,30.3145405 30.7583784,30.3145405 C31.3232973,30.3145405 31.9041081,30.460973 32.406973,30.7617839 L39.3479459,34.7601081 C40.3756216,35.3465947 41.0052433,36.445027 41.0052433,37.628973 L41.0052433,57.4911892 C41.0052433,58.672865 41.6409189,59.7622162 42.6663244,60.366865 L58.968,69.7037297 C59.4795675,70.0102162 60.1182703,70.0102162 60.6252972,69.7037297 C61.1304325,69.415027 61.4482703,68.8652433 61.4482703,68.2719459 L61.5012433,25.7562162 C61.5001081,24.5605405 60.873135,23.465135 59.8431892,22.876 L59.8428108,22.8767567 L59.8428108,22.8767567 Z" id="Shape"></path>
                        </g>
                    </g>
                </g>
            </g>
        </g>
    </g>
</svg>